# xmcd
#
# Track frame offsets:
#	150
#	41017
#	104391
#	113620
#	132510
#	141559
#	159773
#	190674
#
# Disc length: 2785 seconds
#
# Revision: 1
# Processed by: cddbd v1.5.2PL0 Copyright (c) Steve Scherf et al.
# Submitted via: EZCDAudioConverter 2.1.7.1
#
DISCID=690adf08
DTITLE=Keith Tippett Group - You Are Here... I Am There
DYEAR=1900
DGENRE=
TTITLE0=This Evening Was Like Last Year (To Sarah)
TTITLE1=I Wish There Was A Nowhere
TTITLE2=Thank You For The Smile (To Wendy And Roger)
TTITLE3=Three Minutes From An Afternoon In July (To Nick)
TTITLE4=View From Battery Point (To John And Pete)
TTITLE5=Violence
TTITLE6=Stately Dance For Miss Primm
TTITLE7=This Evening Was Like Last Year [Short Version]
EXTD=
EXTT0=
EXTT1=
EXTT2=
EXTT3=
EXTT4=
EXTT5=
EXTT6=
EXTT7=
PLAYORDER=
